<svg xmlns="http://www.w3.org/2000/svg" width="1389" height="1761" viewBox="0 0 1389 1761">
  <g id="グループ_94" data-name="グループ 94" transform="translate(-768 69)" opacity="0.1">
    <g id="Group_88" data-name="Group 88" transform="translate(794.341 505.054)">
      <ellipse id="楕円形_93" data-name="楕円形 93" cx="237.5" cy="239" rx="237.5" ry="239" transform="translate(663.659 -0.054)" fill="#6bdbf3"/>
      <path id="パス_228" data-name="パス 228" d="M486.17,106A13.707,13.707,0,1,0,499.8,119.693,13.638,13.638,0,0,0,486.17,106Z" transform="translate(448.436 100.585)" fill="#fff"/>
      <path id="パス_229" data-name="パス 229" d="M466.238,119.693a13.619,13.619,0,1,0-13.633,13.72A13.66,13.66,0,0,0,466.238,119.693Z" transform="translate(416.588 100.585)" fill="#fff"/>
      <path id="パス_230" data-name="パス 230" d="M514.693,150.8q-.912-1.146-1.9-2.228c-.861-.943-1.758-1.844-2.7-2.705q-1.026-.938-2.117-1.816c-.507-.411-.953-.887-1.481-1.275a43.043,43.043,0,0,0-11.937-6.2,43.36,43.36,0,0,0-39.427,6.2,44.573,44.573,0,0,0-9.409,9.444,10.313,10.313,0,0,0,2.193,14.364,10.167,10.167,0,0,0,14.3-2.181,22.585,22.585,0,0,1,5-5.03,22.9,22.9,0,0,1,6.33-3.3,23.021,23.021,0,0,1,25.9,8.328,10.193,10.193,0,0,0,8.246,4.192,10.045,10.045,0,0,0,6.053-2.011,10.309,10.309,0,0,0,2.165-14.364C515.537,151.715,515.083,151.29,514.693,150.8Z" transform="translate(421.087 127.491)" fill="#fff"/>
      <path id="パス_231" data-name="パス 231" d="M508.755,156.839c.014,8.306-4.2,15.048-9.419,15.057s-9.458-6.716-9.474-15.022,4.428-20.516,9.394-29.275C503.048,135.794,508.739,148.534,508.755,156.839Z" transform="translate(464.851 121.081)" fill="#fff"/>
      <ellipse id="楕円形_94" data-name="楕円形 94" cx="236.5" cy="237.5" rx="236.5" ry="237.5" transform="translate(416.659 256.946)" fill="#f36b6b"/>
      <path id="パス_232" data-name="パス 232" d="M385.854,282.13q-.912-1.146-1.9-2.228-1.292-1.415-2.7-2.705-1.029-.938-2.117-1.816c-.507-.411-.953-.887-1.481-1.275a43.043,43.043,0,0,0-11.937-6.2,43.359,43.359,0,0,0-39.427,6.2,44.535,44.535,0,0,0-9.411,9.444,10.316,10.316,0,0,0,2.193,14.363,10.169,10.169,0,0,0,14.3-2.181,22.5,22.5,0,0,1,5-5.03,22.861,22.861,0,0,1,6.328-3.3,23.025,23.025,0,0,1,25.905,8.326,10.19,10.19,0,0,0,8.246,4.192,10.022,10.022,0,0,0,6.051-2.011,10.31,10.31,0,0,0,2.167-14.363C386.7,283.044,386.242,282.619,385.854,282.13Z" transform="translate(298.829 252.111)" fill="#fff"/>
      <path id="パス_233" data-name="パス 233" d="M370.536,240.066l-.031-.066-29.869,13.927,7.65,16.406L378.155,256.4l-7.595-16.289Z" transform="translate(323.248 227.741)" fill="#fff"/>
      <path id="パス_234" data-name="パス 234" d="M347.487,254l.031-.066L317.65,240,310,256.4l29.869,13.929,7.595-16.289Z" transform="translate(294.177 227.741)" fill="#fff"/>
      <ellipse id="楕円形_95" data-name="楕円形 95" cx="237" cy="237.5" rx="237" ry="237.5" transform="translate(777.659 359.946)" fill="#fcf892"/>
      <path id="パス_235" data-name="パス 235" d="M524.238,301.691a13.619,13.619,0,1,0-13.633,13.722A13.658,13.658,0,0,0,524.238,301.691Z" transform="translate(471.625 273.289)" fill="#324363"/>
      <path id="パス_236" data-name="パス 236" d="M574.384,318.928a10.19,10.19,0,0,0-14.3,2.179,25.924,25.924,0,0,1-5.5,5.533,25.2,25.2,0,0,1-22.878,3.576,24.561,24.561,0,0,1-6.942-3.6,24.969,24.969,0,0,1-5.469-5.506,10.194,10.194,0,0,0-14.3-2.179,10.348,10.348,0,0,0-2.2,14.391,46.375,46.375,0,0,0,9.887,9.92,45.717,45.717,0,0,0,12.576,6.511,45.463,45.463,0,0,0,28.846,0,45.533,45.533,0,0,0,12.549-6.511,46.368,46.368,0,0,0,9.885-9.92A10.342,10.342,0,0,0,574.384,318.928Z" transform="translate(475.258 300.734)" fill="#324363"/>
      <path id="パス_237" data-name="パス 237" d="M544.168,288A13.707,13.707,0,1,0,557.8,301.693,13.638,13.638,0,0,0,544.168,288Z" transform="translate(503.473 273.289)" fill="#324363"/>
      <circle id="楕円形_96" data-name="楕円形 96" cx="236.5" cy="236.5" r="236.5" transform="translate(-0.341 202.946)" fill="#fcf892"/>
      <path id="パス_238" data-name="パス 238" d="M125.238,220.691a13.619,13.619,0,1,0-13.633,13.722A13.658,13.658,0,0,0,125.238,220.691Z" transform="translate(93.006 196.426)" fill="#324363"/>
      <path id="パス_239" data-name="パス 239" d="M175.384,237.928a10.19,10.19,0,0,0-14.3,2.179,25.921,25.921,0,0,1-5.5,5.533,25.2,25.2,0,0,1-22.878,3.576,24.526,24.526,0,0,1-6.94-3.6,24.935,24.935,0,0,1-5.471-5.506,10.194,10.194,0,0,0-14.3-2.179,10.348,10.348,0,0,0-2.2,14.391,46.374,46.374,0,0,0,9.887,9.92,45.716,45.716,0,0,0,12.576,6.511,45.463,45.463,0,0,0,28.846,0,45.534,45.534,0,0,0,12.549-6.511,46.365,46.365,0,0,0,9.885-9.92A10.342,10.342,0,0,0,175.384,237.928Z" transform="translate(96.639 223.872)" fill="#324363"/>
      <path id="パス_240" data-name="パス 240" d="M145.168,207A13.707,13.707,0,1,0,158.8,220.693,13.638,13.638,0,0,0,145.168,207Z" transform="translate(124.855 196.426)" fill="#324363"/>
      <ellipse id="楕円形_97" data-name="楕円形 97" cx="236.5" cy="242" rx="236.5" ry="242" transform="translate(130.659 533.946)" fill="#f3bd6b"/>
      <path id="パス_241" data-name="パス 241" d="M187.217,412.609l-25.147-.023a.216.216,0,0,0,.01.023H162a54.693,54.693,0,0,0,92.942,18.749c.072-.082.15-.16.224-.242.678-.78,1.314-1.592,1.949-2.411.25-.32.513-.624.756-.951.452-.61.867-1.249,1.292-1.879.382-.559.776-1.1,1.138-1.676.249-.4.472-.826.713-1.236.491-.826.984-1.653,1.432-2.512.037-.068.066-.14.1-.208a54.889,54.889,0,0,0,3.235-7.56h-.029l.029-.074Z" transform="translate(153.737 391.511)" fill="#fff"/>
      <path id="パス_242" data-name="パス 242" d="M212.181,409.414a13.707,13.707,0,1,0-13.691-13.72A13.728,13.728,0,0,0,212.181,409.414Z" transform="translate(188.363 362.487)" fill="#fff"/>
      <path id="パス_243" data-name="パス 243" d="M178.4,409.414a13.707,13.707,0,1,0-13.691-13.72A13.728,13.728,0,0,0,178.4,409.414Z" transform="translate(156.309 362.487)" fill="#fff"/>
      <ellipse id="楕円形_98" data-name="楕円形 98" cx="236.5" cy="241.5" rx="236.5" ry="241.5" transform="translate(889.659 703.946)" fill="#f3bd6b"/>
      <path id="パス_244" data-name="パス 244" d="M576.217,499.609l-25.147-.023a.2.2,0,0,0,.01.023H551a54.693,54.693,0,0,0,92.942,18.749c.072-.082.15-.16.224-.242.678-.78,1.314-1.592,1.949-2.411.249-.32.513-.624.756-.951.452-.61.867-1.249,1.292-1.879.382-.559.776-1.1,1.138-1.676.249-.4.472-.826.713-1.236.491-.826.984-1.653,1.432-2.512.037-.068.066-.14.1-.209a54.882,54.882,0,0,0,3.235-7.56h-.029l.029-.074Z" transform="translate(522.866 474.067)" fill="#fff"/>
      <path id="パス_245" data-name="パス 245" d="M601.181,496.414a13.707,13.707,0,1,0-13.691-13.72A13.728,13.728,0,0,0,601.181,496.414Z" transform="translate(557.493 445.043)" fill="#fff"/>
      <path id="パス_246" data-name="パス 246" d="M567.4,496.414a13.707,13.707,0,1,0-13.691-13.72A13.728,13.728,0,0,0,567.4,496.414Z" transform="translate(525.438 445.043)" fill="#fff"/>
      <ellipse id="楕円形_99" data-name="楕円形 99" cx="236.5" cy="239" rx="236.5" ry="239" transform="translate(489.659 652.946)" fill="#6bdbf3"/>
      <path id="パス_247" data-name="パス 247" d="M396.17,441A13.707,13.707,0,1,0,409.8,454.693,13.638,13.638,0,0,0,396.17,441Z" transform="translate(363.033 418.473)" fill="#fff"/>
      <path id="パス_248" data-name="パス 248" d="M376.238,454.693a13.619,13.619,0,1,0-13.633,13.72A13.66,13.66,0,0,0,376.238,454.693Z" transform="translate(331.185 418.473)" fill="#fff"/>
      <path id="パス_249" data-name="パス 249" d="M424.693,485.8q-.912-1.146-1.9-2.228c-.861-.943-1.758-1.844-2.7-2.705q-1.026-.938-2.117-1.816c-.507-.411-.953-.887-1.481-1.275a43.044,43.044,0,0,0-11.937-6.2,43.36,43.36,0,0,0-39.427,6.2,44.571,44.571,0,0,0-9.409,9.444,10.313,10.313,0,0,0,2.192,14.364,10.167,10.167,0,0,0,14.3-2.181,22.584,22.584,0,0,1,5-5.03,22.9,22.9,0,0,1,6.33-3.3,23.021,23.021,0,0,1,25.9,8.328,10.193,10.193,0,0,0,8.246,4.192,10.044,10.044,0,0,0,6.053-2.011,10.309,10.309,0,0,0,2.165-14.364C425.537,486.715,425.083,486.29,424.693,485.8Z" transform="translate(335.684 445.379)" fill="#fff"/>
      <path id="パス_250" data-name="パス 250" d="M418.755,491.839c.014,8.306-4.2,15.048-9.419,15.057s-9.458-6.716-9.474-15.022,4.428-20.516,9.394-29.275C413.048,470.794,418.739,483.534,418.755,491.839Z" transform="translate(379.449 438.969)" fill="#fff"/>
    </g>
    <g id="グループ_90" data-name="グループ 90" transform="translate(2802 -2600)">
      <circle id="楕円形_96-2" data-name="楕円形 96" cx="150.5" cy="150.5" r="150.5" transform="translate(-1600 2531)" fill="#fcf892"/>
      <path id="パス_238-2" data-name="パス 238" d="M115.325,215.709a8.663,8.663,0,1,0-8.671,8.728A8.688,8.688,0,0,0,115.325,215.709Z" transform="translate(-1576.429 2451.407)" fill="#324363"/>
      <path id="パス_239-2" data-name="パス 239" d="M148.615,237.2a6.482,6.482,0,0,0-9.094,1.386,16.487,16.487,0,0,1-3.5,3.519,16.031,16.031,0,0,1-14.552,2.275,15.6,15.6,0,0,1-4.414-2.292,15.86,15.86,0,0,1-3.48-3.5,6.484,6.484,0,0,0-9.094-1.386,6.582,6.582,0,0,0-1.4,9.154,29.5,29.5,0,0,0,6.289,6.31,29.079,29.079,0,0,0,8,4.142,28.918,28.918,0,0,0,18.348,0,28.962,28.962,0,0,0,7.982-4.142,29.491,29.491,0,0,0,6.287-6.31A6.578,6.578,0,0,0,148.615,237.2Z" transform="translate(-1575.511 2458.338)" fill="#324363"/>
      <path id="パス_240-2" data-name="パス 240" d="M140.217,207a8.719,8.719,0,1,0,8.671,8.71A8.675,8.675,0,0,0,140.217,207Z" transform="translate(-1568.385 2451.407)" fill="#324363"/>
    </g>
    <g id="グループ_92" data-name="グループ 92" transform="translate(1922.471 -2486.418)">
      <circle id="楕円形_99-2" data-name="楕円形 99" cx="85.5" cy="85.5" r="85.5" transform="translate(-1154.471 2941.418)" fill="#6bdbf3"/>
      <path id="パス_247-2" data-name="パス 247" d="M387.453,441a4.926,4.926,0,1,0,4.9,4.921A4.9,4.9,0,0,0,387.453,441Z" transform="translate(-1444.555 2574.197)" fill="#fff"/>
      <path id="パス_248-2" data-name="パス 248" d="M358.788,445.921a4.894,4.894,0,1,0-4.9,4.931A4.909,4.909,0,0,0,358.788,445.921Z" transform="translate(-1434.499 2574.197)" fill="#fff"/>
      <path id="パス_249-2" data-name="パス 249" d="M379.239,475.264q-.328-.412-.684-.8c-.31-.339-.632-.663-.97-.972q-.369-.337-.761-.653c-.182-.148-.342-.319-.532-.458a15.468,15.468,0,0,0-4.29-2.229,15.582,15.582,0,0,0-14.168,2.229,16.017,16.017,0,0,0-3.381,3.394,3.706,3.706,0,0,0,.788,5.162,3.654,3.654,0,0,0,5.138-.784,8.116,8.116,0,0,1,1.8-1.808,8.232,8.232,0,0,1,2.275-1.185,8.273,8.273,0,0,1,9.309,2.993,3.663,3.663,0,0,0,2.963,1.506,3.61,3.61,0,0,0,2.175-.723,3.7,3.7,0,0,0,.778-5.162C379.542,475.593,379.379,475.44,379.239,475.264Z" transform="translate(-1435.919 2565.701)" fill="#fff"/>
      <path id="パス_250-2" data-name="パス 250" d="M406.651,473.107c0,2.985-1.51,5.408-3.385,5.411s-3.4-2.414-3.4-5.4,1.591-7.373,3.376-10.52C404.6,465.544,406.646,470.122,406.651,473.107Z" transform="translate(-1449.739 2567.725)" fill="#fff"/>
    </g>
    <g id="グループ_93" data-name="グループ 93" transform="translate(1879.161 -2482.306)">
      <ellipse id="楕円形_98-2" data-name="楕円形 98" cx="177.5" cy="181" rx="177.5" ry="181" transform="translate(-790.161 2987.306)" fill="#f3bd6b"/>
      <path id="パス_244-2" data-name="パス 244" d="M569.936,499.6l-18.883-.018a.129.129,0,0,0,.007.018H551a41.07,41.07,0,0,0,69.791,14.079c.054-.061.113-.12.168-.182.509-.585.986-1.2,1.463-1.81.187-.24.385-.468.568-.714.34-.458.651-.938.97-1.411.287-.42.582-.828.855-1.259.187-.3.354-.62.536-.928.369-.62.739-1.241,1.076-1.886.028-.051.05-.105.075-.157a41.218,41.218,0,0,0,2.429-5.677h-.022l.022-.056Z" transform="translate(-1202.683 2689.98)" fill="#fff"/>
      <path id="パス_245-2" data-name="パス 245" d="M597.771,489.585a10.293,10.293,0,1,0-10.281-10.3A10.309,10.309,0,0,0,597.771,489.585Z" transform="translate(-1185.771 2675.804)" fill="#fff"/>
      <path id="パス_246-2" data-name="パス 246" d="M563.991,489.585a10.293,10.293,0,1,0-10.281-10.3A10.309,10.309,0,0,0,563.991,489.585Z" transform="translate(-1201.427 2675.804)" fill="#fff"/>
    </g>
    <g id="グループ_91" data-name="グループ 91" transform="translate(2695.952 -2298.148)">
      <ellipse id="楕円形_94-2" data-name="楕円形 94" cx="86" cy="86.5" rx="86" ry="86.5" transform="translate(-1219.952 2580.148)" fill="#f36b6b"/>
      <path id="パス_232-2" data-name="パス 232" d="M340.765,271.678q-.332-.418-.693-.812-.471-.516-.984-.986-.375-.342-.771-.662c-.185-.15-.347-.323-.54-.465a15.691,15.691,0,0,0-4.351-2.261,15.805,15.805,0,0,0-14.372,2.261,16.234,16.234,0,0,0-3.431,3.443,3.76,3.76,0,0,0,.8,5.236,3.707,3.707,0,0,0,5.212-.795,8.2,8.2,0,0,1,1.822-1.834,8.334,8.334,0,0,1,2.307-1.2,8.393,8.393,0,0,1,9.443,3.035,3.714,3.714,0,0,0,3.006,1.528,3.653,3.653,0,0,0,2.206-.733,3.758,3.758,0,0,0,.79-5.236C341.073,272.011,340.907,271.856,340.765,271.678Z" transform="translate(-1463.227 2409.409)" fill="#fff"/>
      <path id="パス_233-2" data-name="パス 233" d="M351.535,240.024l-.011-.024-10.888,5.077,2.788,5.98,10.888-5.077-2.768-5.938Z" transform="translate(-1470.679 2416.847)" fill="#fff"/>
      <path id="パス_234-2" data-name="パス 234" d="M323.665,245.1l.011-.024L312.788,240,310,245.98l10.888,5.077,2.768-5.938Z" transform="translate(-1461.808 2416.847)" fill="#fff"/>
    </g>
  </g>
</svg>
