<svg xmlns="http://www.w3.org/2000/svg" xmlns:xlink="http://www.w3.org/1999/xlink" width="324.716" height="637.075" viewBox="0 0 324.716 637.075">
  <defs>
    <clipPath id="clip-path">
      <rect id="長方形_280" data-name="長方形 280" width="252" height="517" transform="translate(0.312 0.352)" fill="#fff"/>
    </clipPath>
  </defs>
  <g id="グループ_127" data-name="グループ 127" transform="translate(-1126.841 -271.462)">
    <g id="Frame_6" data-name="Frame 6" transform="translate(1162.688 316.648)" clip-path="url(#clip-path)">
      <rect id="長方形_167" data-name="長方形 167" width="252" height="517" transform="translate(0.312 0.352)" fill="#fff"/>
      <rect id="長方形_168" data-name="長方形 168" width="265" height="533" transform="translate(258.312 529.352) rotate(180)" fill="#fff"/>
      <g id="グループ_95" data-name="グループ 95" transform="translate(32.312 361.406)">
        <rect id="長方形_169" data-name="長方形 169" width="33" height="161" rx="10" transform="translate(0 -0.054)" fill="#f3bd6b"/>
        <rect id="長方形_170" data-name="長方形 170" width="31" height="160" rx="9" transform="translate(1 -0.054)" fill="none" stroke="#fff" stroke-width="2"/>
      </g>
      <g id="グループ_96" data-name="グループ 96" transform="translate(83.312 383.202)">
        <rect id="長方形_171" data-name="長方形 171" width="34" height="139" rx="10" transform="translate(0 0.15)" fill="#f36b6b"/>
        <rect id="長方形_172" data-name="長方形 172" width="32" height="138" rx="9" transform="translate(1 0.15)" fill="none" stroke="#fff" stroke-width="2"/>
      </g>
      <g id="グループ_97" data-name="グループ 97" transform="translate(134.312 411.632)">
        <rect id="長方形_173" data-name="長方形 173" width="34" height="111" rx="10" transform="translate(0 -0.28)" fill="#6bdbf3"/>
        <rect id="長方形_174" data-name="長方形 174" width="32" height="109" rx="9" transform="translate(1 0.72)" fill="none" stroke="#fff" stroke-width="2"/>
      </g>
      <g id="グループ_98" data-name="グループ 98" transform="translate(186.312 374.673)">
        <rect id="長方形_175" data-name="長方形 175" width="33" height="148" rx="10" transform="translate(0 -0.322)" fill="#fcf892"/>
        <rect id="長方形_176" data-name="長方形 176" width="32" height="147" rx="9" transform="translate(1 -0.322)" fill="none" stroke="#fff" stroke-width="2"/>
      </g>
      <rect id="長方形_177" data-name="長方形 177" width="252" height="33" transform="translate(0.312 0.352)" fill="#324363"/>
      <rect id="長方形_178" data-name="長方形 178" width="252" height="33" transform="translate(0.312 0.352)" fill="#324363"/>
      <rect id="長方形_179" data-name="長方形 179" width="19.28" height="2.251" rx="1.125" transform="translate(220.313 10.454)" fill="#fff"/>
      <rect id="長方形_180" data-name="長方形 180" width="19.28" height="2.572" rx="1.286" transform="translate(220.313 15.92)" fill="#fff"/>
      <rect id="長方形_181" data-name="長方形 181" width="19.28" height="2.251" rx="1.125" transform="translate(220.313 21.708)" fill="#fff"/>
      <rect id="長方形_182" data-name="長方形 182" width="252" height="33" transform="translate(0.312 0.352)" fill="#324363"/>
      <rect id="長方形_183" data-name="長方形 183" width="252" height="33" transform="translate(0.312 0.352)" fill="#324363"/>
      <rect id="長方形_184" data-name="長方形 184" width="19.28" height="2.251" rx="1.125" transform="translate(220.313 10.454)" fill="#fff"/>
      <rect id="長方形_185" data-name="長方形 185" width="19.28" height="2.572" rx="1.286" transform="translate(220.313 15.92)" fill="#fff"/>
      <rect id="長方形_186" data-name="長方形 186" width="19.28" height="2.251" rx="1.125" transform="translate(220.313 21.708)" fill="#fff"/>
      <rect id="長方形_187" data-name="長方形 187" width="22" height="26" transform="translate(20.312 99.352)" fill="#d9d9d9"/>
      <rect id="長方形_188" data-name="長方形 188" width="22" height="27" transform="translate(20.312 144.352)" fill="#d9d9d9"/>
      <rect id="長方形_189" data-name="長方形 189" width="22" height="26" transform="translate(20.312 190.352)" fill="#d9d9d9"/>
      <rect id="長方形_190" data-name="長方形 190" width="22" height="27" transform="translate(20.312 235.352)" fill="#d9d9d9"/>
      <rect id="長方形_191" data-name="長方形 191" width="22" height="27" transform="translate(20.312 280.352)" fill="#d9d9d9"/>
      <rect id="長方形_192" data-name="長方形 192" width="22" height="26" transform="translate(52.312 99.352)" fill="#d9d9d9"/>
      <rect id="長方形_193" data-name="長方形 193" width="22" height="27" transform="translate(52.312 144.352)" fill="#d9d9d9"/>
      <rect id="長方形_194" data-name="長方形 194" width="22" height="26" transform="translate(52.312 190.352)" fill="#d9d9d9"/>
      <rect id="長方形_195" data-name="長方形 195" width="22" height="27" transform="translate(52.312 235.352)" fill="#d9d9d9"/>
      <rect id="長方形_196" data-name="長方形 196" width="22" height="27" transform="translate(52.312 280.352)" fill="#d9d9d9"/>
      <rect id="長方形_197" data-name="長方形 197" width="22" height="26" transform="translate(83.312 99.352)" fill="#d9d9d9"/>
      <rect id="長方形_198" data-name="長方形 198" width="22" height="27" transform="translate(83.312 144.352)" fill="#d9d9d9"/>
      <rect id="長方形_199" data-name="長方形 199" width="22" height="26" transform="translate(83.312 190.352)" fill="#d9d9d9"/>
      <rect id="長方形_200" data-name="長方形 200" width="22" height="27" transform="translate(83.312 235.352)" fill="#d9d9d9"/>
      <rect id="長方形_201" data-name="長方形 201" width="22" height="27" transform="translate(83.312 280.352)" fill="#d9d9d9"/>
      <rect id="長方形_202" data-name="長方形 202" width="22" height="26" transform="translate(115.312 99.352)" fill="#d9d9d9"/>
      <rect id="長方形_203" data-name="長方形 203" width="22" height="27" transform="translate(115.312 144.352)" fill="#d9d9d9"/>
      <rect id="長方形_204" data-name="長方形 204" width="22" height="26" transform="translate(115.312 190.352)" fill="#d9d9d9"/>
      <rect id="長方形_205" data-name="長方形 205" width="22" height="27" transform="translate(115.312 235.352)" fill="#d9d9d9"/>
      <rect id="長方形_206" data-name="長方形 206" width="22" height="27" transform="translate(115.312 280.352)" fill="#d9d9d9"/>
      <rect id="長方形_207" data-name="長方形 207" width="22" height="26" transform="translate(147.312 99.352)" fill="#d9d9d9"/>
      <rect id="長方形_208" data-name="長方形 208" width="22" height="27" transform="translate(147.312 144.352)" fill="#d9d9d9"/>
      <rect id="長方形_209" data-name="長方形 209" width="22" height="26" transform="translate(147.312 190.352)" fill="#d9d9d9"/>
      <rect id="長方形_210" data-name="長方形 210" width="22" height="27" transform="translate(147.312 235.352)" fill="#d9d9d9"/>
      <rect id="長方形_211" data-name="長方形 211" width="22" height="27" transform="translate(147.312 280.352)" fill="#d9d9d9"/>
      <rect id="長方形_212" data-name="長方形 212" width="22" height="26" transform="translate(178.312 99.352)" fill="#d9d9d9"/>
      <rect id="長方形_213" data-name="長方形 213" width="22" height="27" transform="translate(178.312 144.352)" fill="#d9d9d9"/>
      <rect id="長方形_214" data-name="長方形 214" width="22" height="26" transform="translate(178.312 190.352)" fill="#d9d9d9"/>
      <rect id="長方形_215" data-name="長方形 215" width="22" height="27" transform="translate(178.312 235.352)" fill="#d9d9d9"/>
      <rect id="長方形_216" data-name="長方形 216" width="22" height="27" transform="translate(178.312 280.352)" fill="#d9d9d9"/>
      <rect id="長方形_217" data-name="長方形 217" width="22" height="26" transform="translate(210.312 99.352)" fill="#d9d9d9"/>
      <rect id="長方形_218" data-name="長方形 218" width="22" height="27" transform="translate(210.312 144.352)" fill="#d9d9d9"/>
      <rect id="長方形_219" data-name="長方形 219" width="22" height="26" transform="translate(210.312 190.352)" fill="#d9d9d9"/>
      <rect id="長方形_220" data-name="長方形 220" width="22" height="27" transform="translate(210.312 235.352)" fill="#d9d9d9"/>
      <rect id="長方形_221" data-name="長方形 221" width="22" height="27" transform="translate(210.312 280.352)" fill="#d9d9d9"/>
      <line id="線_36" data-name="線 36" x2="252.624" transform="translate(0 125.549)" fill="none" stroke="#000" stroke-width="1"/>
      <line id="線_37" data-name="線 37" x2="252.624" transform="translate(0 170.36)" fill="none" stroke="#000" stroke-width="1"/>
      <line id="線_38" data-name="線 38" x2="252.624" transform="translate(0 215.17)" fill="none" stroke="#000" stroke-width="1"/>
      <line id="線_39" data-name="線 39" x2="252.624" transform="translate(0 259.981)" fill="none" stroke="#000" stroke-width="1"/>
      <line id="線_40" data-name="線 40" x2="252.624" transform="translate(0 306.633)" fill="none" stroke="#000" stroke-width="1"/>
      <g id="グループ_99" data-name="グループ 99" transform="translate(117.891 355.434)" opacity="0.55">
        <path id="パス_255" data-name="パス 255" d="M182.284,579.187a1.36,1.36,0,0,1,1.375,0l6.367,4.181,6.368-4.181a1.359,1.359,0,0,1,1.374,0,.5.5,0,0,1,0,.9l-6.984,4.585a1.645,1.645,0,0,1-1.515,0l-6.985-4.585A.5.5,0,0,1,182.284,579.187Zm7.742,14.178a1.3,1.3,0,0,1-.757-.185l-6.985-4.585a.5.5,0,0,1,0-.9,1.357,1.357,0,0,1,1.375,0l6.367,4.18,6.368-4.18a1.356,1.356,0,0,1,1.374,0,.5.5,0,0,1,0,.9l-6.984,4.585A1.3,1.3,0,0,1,190.026,593.365Z" transform="translate(-182 -579)" fill="#324363" fill-rule="evenodd"/>
      </g>
      <g id="グループ_100" data-name="グループ 100" transform="translate(9.392 10.147)">
        <rect id="長方形_222" data-name="長方形 222" width="32.388" height="14.118" rx="7.059" fill="none" stroke="#fff" stroke-width="1"/>
      </g>
      <rect id="長方形_223" data-name="長方形 223" width="30" height="13" rx="6.5" transform="translate(10.312 10.352)" fill="#fff" opacity="0.25"/>
      <g id="グループ_101" data-name="グループ 101" transform="translate(26.312 10.776)">
        <circle id="楕円形_103" data-name="楕円形 103" cx="6.5" cy="6.5" r="6.5" transform="translate(0 -0.424)" fill="#fff"/>
      </g>
      <ellipse id="楕円形_104" data-name="楕円形 104" cx="3.368" cy="3.192" rx="3.368" ry="3.192" transform="translate(29.874 13.891)" fill="#324363"/>
      <g id="グループ_102" data-name="グループ 102" transform="translate(29.874 13.891)">
        <ellipse id="楕円形_105" data-name="楕円形 105" cx="3.368" cy="3.192" rx="3.368" ry="3.192" fill="#fff"/>
      </g>
      <g id="グループ_103" data-name="グループ 103" transform="translate(12.136 280.483)">
        <path id="パス_256" data-name="パス 256" d="M28.62,458.029c-4.174-.716-8.106,1.578-8.783,5.122s2.158,7,6.332,7.714c3.643.625,7.1-1.043,8.373-3.834l2.56-.871-2.053-1.648C34.951,461.43,32.308,458.661,28.62,458.029Z" transform="translate(-19.089 -457.285)" fill="#fff" fill-rule="evenodd"/>
        <path id="パス_257" data-name="パス 257" d="M34.19,466.645l-.219-.578-.265.09-.111.244Zm2.56-.871.219.578,1.056-.359-.856-.687ZM34.7,464.126l-.647.018.009.273.22.177Zm-14.575-1.252c.6-3.15,4.141-5.294,8.03-4.627l.231-1.208c-4.458-.764-8.784,1.678-9.536,5.617Zm5.81,7c-3.889-.667-6.412-3.85-5.81-7l-1.275-.219c-.752,3.938,2.4,7.663,6.854,8.427ZM33.6,466.4c-1.136,2.5-4.276,4.054-7.663,3.474l-.231,1.208c3.9.669,7.678-1.108,9.083-4.2Zm2.936-1.2-2.56.87.438,1.156,2.56-.871Zm-2.253-.6,2.053,1.648.837-.937-2.053-1.648Zm-6.126-6.347c3.429.588,5.809,3.145,5.9,5.9l1.295-.037c-.11-3.409-3.015-6.391-6.961-7.068Z" transform="translate(-18.736 -456.9)" fill="#f3bd6b"/>
        <ellipse id="楕円形_106" data-name="楕円形 106" cx="0.588" cy="0.557" rx="0.588" ry="0.557" transform="translate(4.279 6.918)" fill="#324363"/>
        <ellipse id="楕円形_107" data-name="楕円形 107" cx="0.588" cy="0.557" rx="0.588" ry="0.557" transform="translate(8.035 6.918)" fill="#324363"/>
        <ellipse id="楕円形_108" data-name="楕円形 108" cx="0.588" cy="0.557" rx="0.588" ry="0.557" transform="translate(11.791 6.918)" fill="#324363"/>
      </g>
      <g id="グループ_104" data-name="グループ 104" transform="translate(109.947 237.514)">
        <path id="パス_258" data-name="パス 258" d="M179.621,388.029c-4.174-.716-8.107,1.578-8.783,5.122s2.158,7,6.332,7.714c3.644.625,7.1-1.043,8.373-3.834l2.56-.871-2.053-1.648C185.95,391.43,183.308,388.661,179.621,388.029Z" transform="translate(-170.089 -387.285)" fill="#fff" fill-rule="evenodd"/>
        <path id="パス_259" data-name="パス 259" d="M185.19,396.645l-.219-.578-.264.09-.111.244Zm2.56-.871.219.578,1.056-.359-.856-.687Zm-2.053-1.648-.647.018.008.273.22.177Zm-14.574-1.252c.6-3.15,4.14-5.294,8.03-4.627l.231-1.208c-4.458-.764-8.784,1.678-9.536,5.617Zm5.81,7c-3.889-.667-6.411-3.85-5.81-7l-1.275-.219c-.752,3.938,2.4,7.663,6.854,8.427ZM184.6,396.4c-1.136,2.5-4.276,4.054-7.664,3.474l-.231,1.208c3.9.669,7.678-1.108,9.083-4.2Zm2.936-1.2-2.56.87.438,1.156,2.56-.871Zm-2.253-.6,2.053,1.648.837-.937-2.053-1.648Zm-6.126-6.347c3.429.588,5.808,3.145,5.9,5.9l1.295-.037c-.109-3.409-3.015-6.391-6.961-7.068Z" transform="translate(-169.736 -386.9)" fill="#fcf892"/>
        <ellipse id="楕円形_109" data-name="楕円形 109" cx="0.588" cy="0.557" rx="0.588" ry="0.557" transform="translate(4.279 6.918)" fill="#324363"/>
        <ellipse id="楕円形_110" data-name="楕円形 110" cx="0.588" cy="0.557" rx="0.588" ry="0.557" transform="translate(8.035 6.918)" fill="#324363"/>
        <ellipse id="楕円形_111" data-name="楕円形 111" cx="0.588" cy="0.557" rx="0.588" ry="0.557" transform="translate(11.791 6.918)" fill="#324363"/>
      </g>
      <g id="グループ_105" data-name="グループ 105" transform="translate(137.801 190.248)">
        <path id="パス_260" data-name="パス 260" d="M222.621,311.029c-4.174-.716-8.107,1.578-8.783,5.122s2.158,7,6.332,7.714c3.644.625,7.1-1.043,8.374-3.834l2.56-.871-2.053-1.648C228.95,314.43,226.308,311.661,222.621,311.029Z" transform="translate(-213.089 -310.285)" fill="#fff" fill-rule="evenodd"/>
        <path id="パス_261" data-name="パス 261" d="M228.19,319.645l-.219-.578-.264.09-.111.244Zm2.56-.871.219.578,1.056-.359-.856-.687Zm-2.053-1.648-.647.018.008.273.22.177Zm-14.574-1.252c.6-3.15,4.14-5.294,8.03-4.627l.231-1.208c-4.458-.764-8.784,1.678-9.536,5.617Zm5.81,7c-3.889-.667-6.411-3.85-5.81-7l-1.275-.219c-.752,3.938,2.4,7.663,6.854,8.427ZM227.6,319.4c-1.136,2.5-4.276,4.054-7.664,3.474l-.231,1.208c3.9.669,7.678-1.108,9.083-4.2Zm2.936-1.2-2.56.87.438,1.156,2.56-.871Zm-2.253-.6,2.053,1.648.837-.937-2.053-1.648Zm-6.126-6.347c3.429.588,5.808,3.145,5.9,5.9l1.295-.037c-.109-3.409-3.015-6.391-6.961-7.068Z" transform="translate(-212.736 -309.9)" fill="#f36b6b"/>
        <ellipse id="楕円形_112" data-name="楕円形 112" cx="0.588" cy="0.557" rx="0.588" ry="0.557" transform="translate(4.279 6.918)" fill="#324363"/>
        <ellipse id="楕円形_113" data-name="楕円形 113" cx="0.588" cy="0.557" rx="0.588" ry="0.557" transform="translate(8.035 6.918)" fill="#324363"/>
        <ellipse id="楕円形_114" data-name="楕円形 114" cx="0.588" cy="0.557" rx="0.588" ry="0.557" transform="translate(11.791 6.918)" fill="#324363"/>
      </g>
      <g id="グループ_106" data-name="グループ 106" transform="translate(137.801 100.627)">
        <path id="パス_262" data-name="パス 262" d="M222.621,165.029c-4.174-.716-8.107,1.578-8.783,5.122s2.158,7,6.332,7.714c3.644.625,7.1-1.043,8.374-3.834l2.56-.871-2.053-1.648C228.95,168.431,226.308,165.661,222.621,165.029Z" transform="translate(-213.089 -164.285)" fill="#fff" fill-rule="evenodd"/>
        <path id="パス_263" data-name="パス 263" d="M228.19,173.645l-.219-.578-.264.09-.111.245Zm2.56-.871.219.578,1.056-.359-.856-.687Zm-2.053-1.648-.647.018.008.273.22.177Zm-14.574-1.252c.6-3.15,4.14-5.294,8.03-4.627l.231-1.208c-4.458-.764-8.784,1.678-9.536,5.617Zm5.81,7c-3.889-.667-6.411-3.85-5.81-7l-1.275-.219c-.752,3.939,2.4,7.663,6.854,8.427ZM227.6,173.4c-1.136,2.5-4.276,4.054-7.664,3.473l-.231,1.208c3.9.669,7.678-1.108,9.083-4.2Zm2.936-1.206-2.56.87.438,1.156,2.56-.871Zm-2.253-.6,2.053,1.648.837-.937-2.053-1.648Zm-6.126-6.347c3.429.588,5.808,3.145,5.9,5.9l1.295-.037c-.109-3.409-3.015-6.391-6.961-7.068Z" transform="translate(-212.736 -163.9)" fill="#f3bd6b"/>
        <ellipse id="楕円形_115" data-name="楕円形 115" cx="0.588" cy="0.557" rx="0.588" ry="0.557" transform="translate(4.279 6.918)" fill="#324363"/>
        <ellipse id="楕円形_116" data-name="楕円形 116" cx="0.588" cy="0.557" rx="0.588" ry="0.557" transform="translate(8.035 6.918)" fill="#324363"/>
        <ellipse id="楕円形_117" data-name="楕円形 117" cx="0.588" cy="0.557" rx="0.588" ry="0.557" transform="translate(11.791 6.918)" fill="#324363"/>
      </g>
      <g id="グループ_107" data-name="グループ 107" transform="translate(49.058 147.893)">
        <path id="パス_264" data-name="パス 264" d="M85.62,242.029c-4.174-.716-8.106,1.578-8.783,5.122s2.158,7,6.332,7.714c3.643.625,7.1-1.043,8.373-3.834l2.56-.871-2.053-1.648C91.95,245.431,89.308,242.661,85.62,242.029Z" transform="translate(-76.089 -241.285)" fill="#fff" fill-rule="evenodd"/>
        <path id="パス_265" data-name="パス 265" d="M91.19,250.645l-.219-.578-.265.09-.111.245Zm2.56-.871.219.578,1.056-.359-.856-.687ZM91.7,248.126l-.647.018.009.273.22.177Zm-14.575-1.252c.6-3.15,4.141-5.294,8.03-4.627l.231-1.208c-4.458-.764-8.784,1.678-9.536,5.617Zm5.81,7c-3.889-.667-6.412-3.85-5.81-7l-1.275-.219c-.752,3.939,2.4,7.663,6.854,8.427ZM90.6,250.4c-1.136,2.5-4.276,4.054-7.663,3.473l-.231,1.208c3.9.669,7.678-1.108,9.083-4.2Zm2.936-1.206-2.56.87.438,1.156,2.56-.871Zm-2.253-.6,2.053,1.648.837-.937-2.053-1.648Zm-6.126-6.347c3.429.588,5.809,3.145,5.9,5.9l1.3-.037c-.109-3.409-3.015-6.391-6.962-7.068Z" transform="translate(-75.736 -240.9)" fill="#fcf892"/>
        <ellipse id="楕円形_118" data-name="楕円形 118" cx="0.588" cy="0.557" rx="0.588" ry="0.557" transform="translate(4.279 6.918)" fill="#324363"/>
        <ellipse id="楕円形_119" data-name="楕円形 119" cx="0.588" cy="0.557" rx="0.588" ry="0.557" transform="translate(8.035 6.918)" fill="#324363"/>
        <ellipse id="楕円形_120" data-name="楕円形 120" cx="0.588" cy="0.557" rx="0.588" ry="0.557" transform="translate(11.791 6.918)" fill="#324363"/>
      </g>
      <g id="グループ_108" data-name="グループ 108" transform="translate(168.893 190.248)">
        <path id="パス_266" data-name="パス 266" d="M270.621,311.029c-4.174-.716-8.107,1.578-8.783,5.122s2.158,7,6.332,7.714c3.644.625,7.1-1.043,8.374-3.834l2.56-.871-2.053-1.648C276.95,314.43,274.308,311.661,270.621,311.029Z" transform="translate(-261.089 -310.285)" fill="#fff" fill-rule="evenodd"/>
        <path id="パス_267" data-name="パス 267" d="M276.19,319.645l-.219-.578-.264.09-.111.244Zm2.56-.871.219.578,1.056-.359-.856-.687Zm-2.053-1.648-.647.018.008.273.22.177Zm-14.574-1.252c.6-3.15,4.14-5.294,8.03-4.627l.231-1.208c-4.458-.764-8.784,1.678-9.536,5.617Zm5.81,7c-3.889-.667-6.411-3.85-5.81-7l-1.275-.219c-.752,3.938,2.4,7.663,6.854,8.427ZM275.6,319.4c-1.136,2.5-4.276,4.054-7.664,3.474l-.231,1.208c3.9.669,7.678-1.108,9.083-4.2Zm2.936-1.2-2.56.87.438,1.156,2.56-.871Zm-2.253-.6,2.053,1.648.837-.937-2.053-1.648Zm-6.126-6.347c3.429.588,5.808,3.145,5.9,5.9l1.295-.037c-.109-3.409-3.015-6.391-6.961-7.068Z" transform="translate(-260.736 -309.9)" fill="#fcf892"/>
        <ellipse id="楕円形_121" data-name="楕円形 121" cx="0.588" cy="0.557" rx="0.588" ry="0.557" transform="translate(4.279 6.918)" fill="#324363"/>
        <ellipse id="楕円形_122" data-name="楕円形 122" cx="0.588" cy="0.557" rx="0.588" ry="0.557" transform="translate(8.035 6.918)" fill="#324363"/>
        <ellipse id="楕円形_123" data-name="楕円形 123" cx="0.588" cy="0.557" rx="0.588" ry="0.557" transform="translate(11.791 6.918)" fill="#324363"/>
      </g>
      <g id="グループ_109" data-name="グループ 109" transform="translate(80.798 101.241)">
        <path id="パス_268" data-name="パス 268" d="M134.621,166.029c-4.174-.716-8.107,1.578-8.783,5.122s2.158,7,6.332,7.714c3.644.625,7.1-1.043,8.374-3.834l2.56-.871-2.053-1.648C140.95,169.431,138.308,166.661,134.621,166.029Z" transform="translate(-125.089 -165.285)" fill="#fff" fill-rule="evenodd"/>
        <path id="パス_269" data-name="パス 269" d="M140.19,174.645l-.219-.578-.264.09-.111.245Zm2.56-.871.219.578,1.056-.359-.856-.687Zm-2.053-1.648-.647.018.008.273.22.177Zm-14.574-1.252c.6-3.15,4.14-5.294,8.03-4.627l.231-1.208c-4.458-.764-8.784,1.678-9.536,5.617Zm5.81,7c-3.889-.667-6.411-3.85-5.81-7l-1.275-.219c-.752,3.939,2.4,7.663,6.854,8.427ZM139.6,174.4c-1.136,2.5-4.276,4.054-7.664,3.473l-.231,1.208c3.9.669,7.678-1.108,9.083-4.195Zm2.936-1.206-2.56.87.438,1.156,2.56-.871Zm-2.253-.6,2.053,1.648.837-.937-2.053-1.648Zm-6.126-6.347c3.429.588,5.808,3.145,5.9,5.9l1.295-.037c-.109-3.409-3.015-6.391-6.961-7.068Z" transform="translate(-124.736 -164.9)" fill="#6bdbf3"/>
        <ellipse id="楕円形_124" data-name="楕円形 124" cx="0.588" cy="0.557" rx="0.588" ry="0.557" transform="translate(4.279 6.918)" fill="#324363"/>
        <ellipse id="楕円形_125" data-name="楕円形 125" cx="0.588" cy="0.557" rx="0.588" ry="0.557" transform="translate(8.035 6.918)" fill="#324363"/>
        <ellipse id="楕円形_126" data-name="楕円形 126" cx="0.588" cy="0.557" rx="0.588" ry="0.557" transform="translate(11.791 6.918)" fill="#324363"/>
      </g>
      <path id="パス_270" data-name="パス 270" d="M36.037,115.937l15.8-29.624v-.262H33.622v-3.6H56.257v3.793L40.523,115.937Z" transform="translate(-11.843 -31.822)" fill="#324363"/>
      <path id="パス_271" data-name="パス 271" d="M69.557,115.182h1.711v9.573a4.432,4.432,0,0,1-.5,2.178,3.286,3.286,0,0,1-1.4,1.36,4.612,4.612,0,0,1-2.132.464,5.056,5.056,0,0,1-2.063-.4,3.355,3.355,0,0,1-1.422-1.151,3.028,3.028,0,0,1-.518-1.772H64.92a1.694,1.694,0,0,0,.3.994,2.022,2.022,0,0,0,.828.654,2.883,2.883,0,0,0,1.194.236,2.5,2.5,0,0,0,1.256-.295,1.893,1.893,0,0,0,.787-.863,3.234,3.234,0,0,0,.276-1.406Zm11.6,9.286V118.53h1.629v10.045H81.157v-1.7h-.11a3.345,3.345,0,0,1-1.159,1.3,3.486,3.486,0,0,1-1.987.53,3.7,3.7,0,0,1-1.767-.412,2.949,2.949,0,0,1-1.215-1.256,4.555,4.555,0,0,1-.442-2.125V118.53h1.629v6.278a2.379,2.379,0,0,0,.649,1.753,2.265,2.265,0,0,0,1.67.654,2.9,2.9,0,0,0,1.235-.294,2.653,2.653,0,0,0,1.063-.9A2.6,2.6,0,0,0,81.157,124.468Zm6.24-9.286v13.393H85.769V115.182Zm4.032,17.159a3.763,3.763,0,0,1-.738-.065,2.036,2.036,0,0,1-.448-.118l.414-1.36a3.317,3.317,0,0,0,1.049.1,1.286,1.286,0,0,0,.808-.386,3.034,3.034,0,0,0,.656-1.1l.3-.785-3.92-10.1h1.766l2.926,8h.11l2.926-8h1.767l-4.5,11.51a4.292,4.292,0,0,1-.753,1.288,2.8,2.8,0,0,1-1.042.765A3.379,3.379,0,0,1,91.429,132.341Z" transform="translate(-22.275 -44.46)" fill="#324363"/>
      <g id="グループ_110" data-name="グループ 110" transform="translate(33.312 436.271)">
        <ellipse id="楕円形_127" data-name="楕円形 127" cx="93" cy="88.5" rx="93" ry="88.5" transform="translate(0 0.081)" fill="#fff"/>
        <ellipse id="楕円形_128" data-name="楕円形 128" cx="91.657" cy="86.859" rx="91.657" ry="86.859" transform="translate(1.343 1.725)" fill="none" stroke="#324363" stroke-width="5"/>
      </g>
      <path id="パス_272" data-name="パス 272" d="M281.8,813.539a78.759,78.759,0,0,0-9.2-36.862,83.494,83.494,0,0,0-25.661-29.045L195,813.539Z" transform="translate(-68.688 -288.685)" fill="#fcf892" stroke="#fff" stroke-width="6"/>
      <path id="パス_273" data-name="パス 273" d="M246.9,737.613a89.6,89.6,0,0,0-42.69-15.857L195,803.547Z" transform="translate(-68.688 -278.693)" fill="#6bdbf3" stroke="#fff" stroke-width="6"/>
      <path id="パス_274" data-name="パス 274" d="M187.994,721.437a91.279,91.279,0,0,0-38.252,4.4l29.316,77.422Z" transform="translate(-52.746 -278.401)" fill="#f36b6b" stroke="#fff" stroke-width="6"/>
      <path id="パス_275" data-name="パス 275" d="M116.073,730.272A85.768,85.768,0,0,0,73.446,764.4a78.766,78.766,0,0,0-11.9,51.664l86.251-9.224Z" transform="translate(-21.487 -281.981)" fill="#f3bd6b" stroke="#fff" stroke-width="6"/>
      <rect id="長方形_224" data-name="長方形 224" width="265" height="533" transform="translate(258.312 529.352) rotate(180)" fill="#fff"/>
      <g id="グループ_111" data-name="グループ 111" transform="translate(32.312 361.406)">
        <rect id="長方形_225" data-name="長方形 225" width="33" height="161" rx="10" transform="translate(0 -0.054)" fill="#f3bd6b"/>
        <rect id="長方形_226" data-name="長方形 226" width="31" height="160" rx="9" transform="translate(1 -0.054)" fill="none" stroke="#fff" stroke-width="2"/>
      </g>
      <g id="グループ_112" data-name="グループ 112" transform="translate(83.312 383.202)">
        <rect id="長方形_227" data-name="長方形 227" width="34" height="139" rx="10" transform="translate(0 0.15)" fill="#f36b6b"/>
        <rect id="長方形_228" data-name="長方形 228" width="32" height="138" rx="9" transform="translate(1 0.15)" fill="none" stroke="#fff" stroke-width="2"/>
      </g>
      <g id="グループ_113" data-name="グループ 113" transform="translate(134.312 411.632)">
        <rect id="長方形_229" data-name="長方形 229" width="34" height="111" rx="10" transform="translate(0 -0.28)" fill="#6bdbf3"/>
        <rect id="長方形_230" data-name="長方形 230" width="32" height="109" rx="9" transform="translate(1 0.72)" fill="none" stroke="#fff" stroke-width="2"/>
      </g>
      <g id="グループ_114" data-name="グループ 114" transform="translate(186.312 374.673)">
        <rect id="長方形_231" data-name="長方形 231" width="33" height="148" rx="10" transform="translate(0 -0.322)" fill="#fcf892"/>
        <rect id="長方形_232" data-name="長方形 232" width="32" height="147" rx="9" transform="translate(1 -0.322)" fill="none" stroke="#fff" stroke-width="2"/>
      </g>
      <rect id="長方形_233" data-name="長方形 233" width="252" height="33" transform="translate(0.312 0.352)" fill="#324363"/>
      <rect id="長方形_234" data-name="長方形 234" width="252" height="33" transform="translate(0.312 0.352)" fill="#324363"/>
      <rect id="長方形_235" data-name="長方形 235" width="19.28" height="2.251" rx="1.125" transform="translate(220.313 10.454)" fill="#fff"/>
      <rect id="長方形_236" data-name="長方形 236" width="19.28" height="2.572" rx="1.286" transform="translate(220.313 15.92)" fill="#fff"/>
      <rect id="長方形_237" data-name="長方形 237" width="19.28" height="2.251" rx="1.125" transform="translate(220.313 21.708)" fill="#fff"/>
      <rect id="長方形_238" data-name="長方形 238" width="252" height="33" transform="translate(0.312 0.352)" fill="#324363"/>
      <rect id="長方形_239" data-name="長方形 239" width="252" height="33" transform="translate(0.312 0.352)" fill="#324363"/>
      <rect id="長方形_240" data-name="長方形 240" width="19.28" height="2.251" rx="1.125" transform="translate(220.313 10.454)" fill="#fff"/>
      <rect id="長方形_241" data-name="長方形 241" width="19.28" height="2.572" rx="1.286" transform="translate(220.313 15.92)" fill="#fff"/>
      <rect id="長方形_242" data-name="長方形 242" width="19.28" height="2.251" rx="1.125" transform="translate(220.313 21.708)" fill="#fff"/>
      <rect id="長方形_243" data-name="長方形 243" width="22" height="26" transform="translate(20.312 99.352)" fill="#d9d9d9"/>
      <rect id="長方形_244" data-name="長方形 244" width="22" height="27" transform="translate(20.312 144.352)" fill="#d9d9d9"/>
      <rect id="長方形_245" data-name="長方形 245" width="22" height="26" transform="translate(20.312 190.352)" fill="#d9d9d9"/>
      <rect id="長方形_246" data-name="長方形 246" width="22" height="27" transform="translate(20.312 235.352)" fill="#d9d9d9"/>
      <rect id="長方形_247" data-name="長方形 247" width="22" height="27" transform="translate(20.312 280.352)" fill="#d9d9d9"/>
      <rect id="長方形_248" data-name="長方形 248" width="22" height="26" transform="translate(52.312 99.352)" fill="#d9d9d9"/>
      <rect id="長方形_249" data-name="長方形 249" width="22" height="27" transform="translate(52.312 144.352)" fill="#d9d9d9"/>
      <rect id="長方形_250" data-name="長方形 250" width="22" height="26" transform="translate(52.312 190.352)" fill="#d9d9d9"/>
      <rect id="長方形_251" data-name="長方形 251" width="22" height="27" transform="translate(52.312 235.352)" fill="#d9d9d9"/>
      <rect id="長方形_252" data-name="長方形 252" width="22" height="27" transform="translate(52.312 280.352)" fill="#d9d9d9"/>
      <rect id="長方形_253" data-name="長方形 253" width="22" height="26" transform="translate(83.312 99.352)" fill="#d9d9d9"/>
      <rect id="長方形_254" data-name="長方形 254" width="22" height="27" transform="translate(83.312 144.352)" fill="#d9d9d9"/>
      <rect id="長方形_255" data-name="長方形 255" width="22" height="26" transform="translate(83.312 190.352)" fill="#d9d9d9"/>
      <rect id="長方形_256" data-name="長方形 256" width="22" height="27" transform="translate(83.312 235.352)" fill="#d9d9d9"/>
      <rect id="長方形_257" data-name="長方形 257" width="22" height="27" transform="translate(83.312 280.352)" fill="#d9d9d9"/>
      <rect id="長方形_258" data-name="長方形 258" width="22" height="26" transform="translate(115.312 99.352)" fill="#d9d9d9"/>
      <rect id="長方形_259" data-name="長方形 259" width="22" height="27" transform="translate(115.312 144.352)" fill="#d9d9d9"/>
      <rect id="長方形_260" data-name="長方形 260" width="22" height="26" transform="translate(115.312 190.352)" fill="#d9d9d9"/>
      <rect id="長方形_261" data-name="長方形 261" width="22" height="27" transform="translate(115.312 235.352)" fill="#d9d9d9"/>
      <rect id="長方形_262" data-name="長方形 262" width="22" height="27" transform="translate(115.312 280.352)" fill="#d9d9d9"/>
      <rect id="長方形_263" data-name="長方形 263" width="22" height="26" transform="translate(147.312 99.352)" fill="#d9d9d9"/>
      <rect id="長方形_264" data-name="長方形 264" width="22" height="27" transform="translate(147.312 144.352)" fill="#d9d9d9"/>
      <rect id="長方形_265" data-name="長方形 265" width="22" height="26" transform="translate(147.312 190.352)" fill="#d9d9d9"/>
      <rect id="長方形_266" data-name="長方形 266" width="22" height="27" transform="translate(147.312 235.352)" fill="#d9d9d9"/>
      <rect id="長方形_267" data-name="長方形 267" width="22" height="27" transform="translate(147.312 280.352)" fill="#d9d9d9"/>
      <rect id="長方形_268" data-name="長方形 268" width="22" height="26" transform="translate(178.312 99.352)" fill="#d9d9d9"/>
      <rect id="長方形_269" data-name="長方形 269" width="22" height="27" transform="translate(178.312 144.352)" fill="#d9d9d9"/>
      <rect id="長方形_270" data-name="長方形 270" width="22" height="26" transform="translate(178.312 190.352)" fill="#d9d9d9"/>
      <rect id="長方形_271" data-name="長方形 271" width="22" height="27" transform="translate(178.312 235.352)" fill="#d9d9d9"/>
      <rect id="長方形_272" data-name="長方形 272" width="22" height="27" transform="translate(178.312 280.352)" fill="#d9d9d9"/>
      <rect id="長方形_273" data-name="長方形 273" width="22" height="26" transform="translate(210.312 99.352)" fill="#d9d9d9"/>
      <rect id="長方形_274" data-name="長方形 274" width="22" height="27" transform="translate(210.312 144.352)" fill="#d9d9d9"/>
      <rect id="長方形_275" data-name="長方形 275" width="22" height="26" transform="translate(210.312 190.352)" fill="#d9d9d9"/>
      <rect id="長方形_276" data-name="長方形 276" width="22" height="27" transform="translate(210.312 235.352)" fill="#d9d9d9"/>
      <rect id="長方形_277" data-name="長方形 277" width="22" height="27" transform="translate(210.312 280.352)" fill="#d9d9d9"/>
      <line id="線_41" data-name="線 41" x2="252.624" transform="translate(0 125.549)" fill="none" stroke="#000" stroke-width="1"/>
      <line id="線_42" data-name="線 42" x2="252.624" transform="translate(0 170.36)" fill="none" stroke="#000" stroke-width="1"/>
      <line id="線_43" data-name="線 43" x2="252.624" transform="translate(0 215.17)" fill="none" stroke="#000" stroke-width="1"/>
      <line id="線_44" data-name="線 44" x2="252.624" transform="translate(0 259.981)" fill="none" stroke="#000" stroke-width="1"/>
      <line id="線_45" data-name="線 45" x2="252.624" transform="translate(0 306.633)" fill="none" stroke="#000" stroke-width="1"/>
      <g id="グループ_115" data-name="グループ 115" transform="translate(117.891 355.434)" opacity="0.55">
        <path id="パス_276" data-name="パス 276" d="M182.284,579.187a1.36,1.36,0,0,1,1.375,0l6.367,4.181,6.368-4.181a1.359,1.359,0,0,1,1.374,0,.5.5,0,0,1,0,.9l-6.984,4.585a1.645,1.645,0,0,1-1.515,0l-6.985-4.585A.5.5,0,0,1,182.284,579.187Zm7.742,14.178a1.3,1.3,0,0,1-.757-.185l-6.985-4.585a.5.5,0,0,1,0-.9,1.357,1.357,0,0,1,1.375,0l6.367,4.18,6.368-4.18a1.356,1.356,0,0,1,1.374,0,.5.5,0,0,1,0,.9l-6.984,4.585A1.3,1.3,0,0,1,190.026,593.365Z" transform="translate(-182 -579)" fill="#324363" fill-rule="evenodd"/>
      </g>
      <g id="グループ_116" data-name="グループ 116" transform="translate(9.392 10.147)">
        <rect id="長方形_278" data-name="長方形 278" width="32.388" height="14.118" rx="7.059" fill="none" stroke="#fff" stroke-width="1"/>
      </g>
      <rect id="長方形_279" data-name="長方形 279" width="30" height="13" rx="6.5" transform="translate(10.312 10.352)" fill="#fff" opacity="0.25"/>
      <g id="グループ_117" data-name="グループ 117" transform="translate(26.312 10.776)">
        <circle id="楕円形_129" data-name="楕円形 129" cx="6.5" cy="6.5" r="6.5" transform="translate(0 -0.424)" fill="#fff"/>
      </g>
      <ellipse id="楕円形_130" data-name="楕円形 130" cx="3.368" cy="3.192" rx="3.368" ry="3.192" transform="translate(29.874 13.891)" fill="#324363"/>
      <g id="グループ_118" data-name="グループ 118" transform="translate(29.874 13.891)">
        <ellipse id="楕円形_131" data-name="楕円形 131" cx="3.368" cy="3.192" rx="3.368" ry="3.192" fill="#fff"/>
      </g>
      <g id="グループ_119" data-name="グループ 119" transform="translate(12.136 280.483)">
        <path id="パス_277" data-name="パス 277" d="M28.62,458.029c-4.174-.716-8.106,1.578-8.783,5.122s2.158,7,6.332,7.714c3.643.625,7.1-1.043,8.373-3.834l2.56-.871-2.053-1.648C34.951,461.43,32.308,458.661,28.62,458.029Z" transform="translate(-19.089 -457.285)" fill="#fff" fill-rule="evenodd"/>
        <path id="パス_278" data-name="パス 278" d="M34.19,466.645l-.219-.578-.265.09-.111.244Zm2.56-.871.219.578,1.056-.359-.856-.687ZM34.7,464.126l-.647.018.009.273.22.177Zm-14.575-1.252c.6-3.15,4.141-5.294,8.03-4.627l.231-1.208c-4.458-.764-8.784,1.678-9.536,5.617Zm5.81,7c-3.889-.667-6.412-3.85-5.81-7l-1.275-.219c-.752,3.938,2.4,7.663,6.854,8.427ZM33.6,466.4c-1.136,2.5-4.276,4.054-7.663,3.474l-.231,1.208c3.9.669,7.678-1.108,9.083-4.2Zm2.936-1.2-2.56.87.438,1.156,2.56-.871Zm-2.253-.6,2.053,1.648.837-.937-2.053-1.648Zm-6.126-6.347c3.429.588,5.809,3.145,5.9,5.9l1.295-.037c-.11-3.409-3.015-6.391-6.961-7.068Z" transform="translate(-18.736 -456.9)" fill="#f3bd6b"/>
        <ellipse id="楕円形_132" data-name="楕円形 132" cx="0.588" cy="0.557" rx="0.588" ry="0.557" transform="translate(4.279 6.918)" fill="#324363"/>
        <ellipse id="楕円形_133" data-name="楕円形 133" cx="0.588" cy="0.557" rx="0.588" ry="0.557" transform="translate(8.035 6.918)" fill="#324363"/>
        <ellipse id="楕円形_134" data-name="楕円形 134" cx="0.588" cy="0.557" rx="0.588" ry="0.557" transform="translate(11.791 6.918)" fill="#324363"/>
      </g>
      <g id="グループ_120" data-name="グループ 120" transform="translate(109.947 237.514)">
        <path id="パス_279" data-name="パス 279" d="M179.621,388.029c-4.174-.716-8.107,1.578-8.783,5.122s2.158,7,6.332,7.714c3.644.625,7.1-1.043,8.373-3.834l2.56-.871-2.053-1.648C185.95,391.43,183.308,388.661,179.621,388.029Z" transform="translate(-170.089 -387.285)" fill="#fff" fill-rule="evenodd"/>
        <path id="パス_280" data-name="パス 280" d="M185.19,396.645l-.219-.578-.264.09-.111.244Zm2.56-.871.219.578,1.056-.359-.856-.687Zm-2.053-1.648-.647.018.008.273.22.177Zm-14.574-1.252c.6-3.15,4.14-5.294,8.03-4.627l.231-1.208c-4.458-.764-8.784,1.678-9.536,5.617Zm5.81,7c-3.889-.667-6.411-3.85-5.81-7l-1.275-.219c-.752,3.938,2.4,7.663,6.854,8.427ZM184.6,396.4c-1.136,2.5-4.276,4.054-7.664,3.474l-.231,1.208c3.9.669,7.678-1.108,9.083-4.2Zm2.936-1.2-2.56.87.438,1.156,2.56-.871Zm-2.253-.6,2.053,1.648.837-.937-2.053-1.648Zm-6.126-6.347c3.429.588,5.808,3.145,5.9,5.9l1.295-.037c-.109-3.409-3.015-6.391-6.961-7.068Z" transform="translate(-169.736 -386.9)" fill="#fcf892"/>
        <ellipse id="楕円形_135" data-name="楕円形 135" cx="0.588" cy="0.557" rx="0.588" ry="0.557" transform="translate(4.279 6.918)" fill="#324363"/>
        <ellipse id="楕円形_136" data-name="楕円形 136" cx="0.588" cy="0.557" rx="0.588" ry="0.557" transform="translate(8.035 6.918)" fill="#324363"/>
        <ellipse id="楕円形_137" data-name="楕円形 137" cx="0.588" cy="0.557" rx="0.588" ry="0.557" transform="translate(11.791 6.918)" fill="#324363"/>
      </g>
      <g id="グループ_121" data-name="グループ 121" transform="translate(137.801 190.248)">
        <path id="パス_281" data-name="パス 281" d="M222.621,311.029c-4.174-.716-8.107,1.578-8.783,5.122s2.158,7,6.332,7.714c3.644.625,7.1-1.043,8.374-3.834l2.56-.871-2.053-1.648C228.95,314.43,226.308,311.661,222.621,311.029Z" transform="translate(-213.089 -310.285)" fill="#fff" fill-rule="evenodd"/>
        <path id="パス_282" data-name="パス 282" d="M228.19,319.645l-.219-.578-.264.09-.111.244Zm2.56-.871.219.578,1.056-.359-.856-.687Zm-2.053-1.648-.647.018.008.273.22.177Zm-14.574-1.252c.6-3.15,4.14-5.294,8.03-4.627l.231-1.208c-4.458-.764-8.784,1.678-9.536,5.617Zm5.81,7c-3.889-.667-6.411-3.85-5.81-7l-1.275-.219c-.752,3.938,2.4,7.663,6.854,8.427ZM227.6,319.4c-1.136,2.5-4.276,4.054-7.664,3.474l-.231,1.208c3.9.669,7.678-1.108,9.083-4.2Zm2.936-1.2-2.56.87.438,1.156,2.56-.871Zm-2.253-.6,2.053,1.648.837-.937-2.053-1.648Zm-6.126-6.347c3.429.588,5.808,3.145,5.9,5.9l1.295-.037c-.109-3.409-3.015-6.391-6.961-7.068Z" transform="translate(-212.736 -309.9)" fill="#f36b6b"/>
        <ellipse id="楕円形_138" data-name="楕円形 138" cx="0.588" cy="0.557" rx="0.588" ry="0.557" transform="translate(4.279 6.918)" fill="#324363"/>
        <ellipse id="楕円形_139" data-name="楕円形 139" cx="0.588" cy="0.557" rx="0.588" ry="0.557" transform="translate(8.035 6.918)" fill="#324363"/>
        <ellipse id="楕円形_140" data-name="楕円形 140" cx="0.588" cy="0.557" rx="0.588" ry="0.557" transform="translate(11.791 6.918)" fill="#324363"/>
      </g>
      <g id="グループ_122" data-name="グループ 122" transform="translate(137.801 100.627)">
        <path id="パス_283" data-name="パス 283" d="M222.621,165.029c-4.174-.716-8.107,1.578-8.783,5.122s2.158,7,6.332,7.714c3.644.625,7.1-1.043,8.374-3.834l2.56-.871-2.053-1.648C228.95,168.431,226.308,165.661,222.621,165.029Z" transform="translate(-213.089 -164.285)" fill="#fff" fill-rule="evenodd"/>
        <path id="パス_284" data-name="パス 284" d="M228.19,173.645l-.219-.578-.264.09-.111.245Zm2.56-.871.219.578,1.056-.359-.856-.687Zm-2.053-1.648-.647.018.008.273.22.177Zm-14.574-1.252c.6-3.15,4.14-5.294,8.03-4.627l.231-1.208c-4.458-.764-8.784,1.678-9.536,5.617Zm5.81,7c-3.889-.667-6.411-3.85-5.81-7l-1.275-.219c-.752,3.939,2.4,7.663,6.854,8.427ZM227.6,173.4c-1.136,2.5-4.276,4.054-7.664,3.473l-.231,1.208c3.9.669,7.678-1.108,9.083-4.2Zm2.936-1.206-2.56.87.438,1.156,2.56-.871Zm-2.253-.6,2.053,1.648.837-.937-2.053-1.648Zm-6.126-6.347c3.429.588,5.808,3.145,5.9,5.9l1.295-.037c-.109-3.409-3.015-6.391-6.961-7.068Z" transform="translate(-212.736 -163.9)" fill="#f3bd6b"/>
        <ellipse id="楕円形_141" data-name="楕円形 141" cx="0.588" cy="0.557" rx="0.588" ry="0.557" transform="translate(4.279 6.918)" fill="#324363"/>
        <ellipse id="楕円形_142" data-name="楕円形 142" cx="0.588" cy="0.557" rx="0.588" ry="0.557" transform="translate(8.035 6.918)" fill="#324363"/>
        <ellipse id="楕円形_143" data-name="楕円形 143" cx="0.588" cy="0.557" rx="0.588" ry="0.557" transform="translate(11.791 6.918)" fill="#324363"/>
      </g>
      <g id="グループ_123" data-name="グループ 123" transform="translate(49.058 147.893)">
        <path id="パス_285" data-name="パス 285" d="M85.62,242.029c-4.174-.716-8.106,1.578-8.783,5.122s2.158,7,6.332,7.714c3.643.625,7.1-1.043,8.373-3.834l2.56-.871-2.053-1.648C91.95,245.431,89.308,242.661,85.62,242.029Z" transform="translate(-76.089 -241.285)" fill="#fff" fill-rule="evenodd"/>
        <path id="パス_286" data-name="パス 286" d="M91.19,250.645l-.219-.578-.265.09-.111.245Zm2.56-.871.219.578,1.056-.359-.856-.687ZM91.7,248.126l-.647.018.009.273.22.177Zm-14.575-1.252c.6-3.15,4.141-5.294,8.03-4.627l.231-1.208c-4.458-.764-8.784,1.678-9.536,5.617Zm5.81,7c-3.889-.667-6.412-3.85-5.81-7l-1.275-.219c-.752,3.939,2.4,7.663,6.854,8.427ZM90.6,250.4c-1.136,2.5-4.276,4.054-7.663,3.473l-.231,1.208c3.9.669,7.678-1.108,9.083-4.2Zm2.936-1.206-2.56.87.438,1.156,2.56-.871Zm-2.253-.6,2.053,1.648.837-.937-2.053-1.648Zm-6.126-6.347c3.429.588,5.809,3.145,5.9,5.9l1.3-.037c-.109-3.409-3.015-6.391-6.962-7.068Z" transform="translate(-75.736 -240.9)" fill="#fcf892"/>
        <ellipse id="楕円形_144" data-name="楕円形 144" cx="0.588" cy="0.557" rx="0.588" ry="0.557" transform="translate(4.279 6.918)" fill="#324363"/>
        <ellipse id="楕円形_145" data-name="楕円形 145" cx="0.588" cy="0.557" rx="0.588" ry="0.557" transform="translate(8.035 6.918)" fill="#324363"/>
        <ellipse id="楕円形_146" data-name="楕円形 146" cx="0.588" cy="0.557" rx="0.588" ry="0.557" transform="translate(11.791 6.918)" fill="#324363"/>
      </g>
      <g id="グループ_124" data-name="グループ 124" transform="translate(168.893 190.248)">
        <path id="パス_287" data-name="パス 287" d="M270.621,311.029c-4.174-.716-8.107,1.578-8.783,5.122s2.158,7,6.332,7.714c3.644.625,7.1-1.043,8.374-3.834l2.56-.871-2.053-1.648C276.95,314.43,274.308,311.661,270.621,311.029Z" transform="translate(-261.089 -310.285)" fill="#fff" fill-rule="evenodd"/>
        <path id="パス_288" data-name="パス 288" d="M276.19,319.645l-.219-.578-.264.09-.111.244Zm2.56-.871.219.578,1.056-.359-.856-.687Zm-2.053-1.648-.647.018.008.273.22.177Zm-14.574-1.252c.6-3.15,4.14-5.294,8.03-4.627l.231-1.208c-4.458-.764-8.784,1.678-9.536,5.617Zm5.81,7c-3.889-.667-6.411-3.85-5.81-7l-1.275-.219c-.752,3.938,2.4,7.663,6.854,8.427ZM275.6,319.4c-1.136,2.5-4.276,4.054-7.664,3.474l-.231,1.208c3.9.669,7.678-1.108,9.083-4.2Zm2.936-1.2-2.56.87.438,1.156,2.56-.871Zm-2.253-.6,2.053,1.648.837-.937-2.053-1.648Zm-6.126-6.347c3.429.588,5.808,3.145,5.9,5.9l1.295-.037c-.109-3.409-3.015-6.391-6.961-7.068Z" transform="translate(-260.736 -309.9)" fill="#fcf892"/>
        <ellipse id="楕円形_147" data-name="楕円形 147" cx="0.588" cy="0.557" rx="0.588" ry="0.557" transform="translate(4.279 6.918)" fill="#324363"/>
        <ellipse id="楕円形_148" data-name="楕円形 148" cx="0.588" cy="0.557" rx="0.588" ry="0.557" transform="translate(8.035 6.918)" fill="#324363"/>
        <ellipse id="楕円形_149" data-name="楕円形 149" cx="0.588" cy="0.557" rx="0.588" ry="0.557" transform="translate(11.791 6.918)" fill="#324363"/>
      </g>
      <g id="グループ_125" data-name="グループ 125" transform="translate(80.798 101.241)">
        <path id="パス_289" data-name="パス 289" d="M134.621,166.029c-4.174-.716-8.107,1.578-8.783,5.122s2.158,7,6.332,7.714c3.644.625,7.1-1.043,8.374-3.834l2.56-.871-2.053-1.648C140.95,169.431,138.308,166.661,134.621,166.029Z" transform="translate(-125.089 -165.285)" fill="#fff" fill-rule="evenodd"/>
        <path id="パス_290" data-name="パス 290" d="M140.19,174.645l-.219-.578-.264.09-.111.245Zm2.56-.871.219.578,1.056-.359-.856-.687Zm-2.053-1.648-.647.018.008.273.22.177Zm-14.574-1.252c.6-3.15,4.14-5.294,8.03-4.627l.231-1.208c-4.458-.764-8.784,1.678-9.536,5.617Zm5.81,7c-3.889-.667-6.411-3.85-5.81-7l-1.275-.219c-.752,3.939,2.4,7.663,6.854,8.427ZM139.6,174.4c-1.136,2.5-4.276,4.054-7.664,3.473l-.231,1.208c3.9.669,7.678-1.108,9.083-4.195Zm2.936-1.206-2.56.87.438,1.156,2.56-.871Zm-2.253-.6,2.053,1.648.837-.937-2.053-1.648Zm-6.126-6.347c3.429.588,5.808,3.145,5.9,5.9l1.295-.037c-.109-3.409-3.015-6.391-6.961-7.068Z" transform="translate(-124.736 -164.9)" fill="#6bdbf3"/>
        <ellipse id="楕円形_150" data-name="楕円形 150" cx="0.588" cy="0.557" rx="0.588" ry="0.557" transform="translate(4.279 6.918)" fill="#324363"/>
        <ellipse id="楕円形_151" data-name="楕円形 151" cx="0.588" cy="0.557" rx="0.588" ry="0.557" transform="translate(8.035 6.918)" fill="#324363"/>
        <ellipse id="楕円形_152" data-name="楕円形 152" cx="0.588" cy="0.557" rx="0.588" ry="0.557" transform="translate(11.791 6.918)" fill="#324363"/>
      </g>
      <path id="パス_291" data-name="パス 291" d="M36.037,115.937l15.8-29.624v-.262H33.622v-3.6H56.257v3.793L40.523,115.937Z" transform="translate(-11.843 -31.822)" fill="#324363"/>
      <path id="パス_292" data-name="パス 292" d="M69.557,115.182h1.711v9.573a4.432,4.432,0,0,1-.5,2.178,3.286,3.286,0,0,1-1.4,1.36,4.612,4.612,0,0,1-2.132.464,5.056,5.056,0,0,1-2.063-.4,3.355,3.355,0,0,1-1.422-1.151,3.028,3.028,0,0,1-.518-1.772H64.92a1.694,1.694,0,0,0,.3.994,2.022,2.022,0,0,0,.828.654,2.883,2.883,0,0,0,1.194.236,2.5,2.5,0,0,0,1.256-.295,1.893,1.893,0,0,0,.787-.863,3.234,3.234,0,0,0,.276-1.406Zm11.6,9.286V118.53h1.629v10.045H81.157v-1.7h-.11a3.345,3.345,0,0,1-1.159,1.3,3.486,3.486,0,0,1-1.987.53,3.7,3.7,0,0,1-1.767-.412,2.949,2.949,0,0,1-1.215-1.256,4.555,4.555,0,0,1-.442-2.125V118.53h1.629v6.278a2.379,2.379,0,0,0,.649,1.753,2.265,2.265,0,0,0,1.67.654,2.9,2.9,0,0,0,1.235-.294,2.653,2.653,0,0,0,1.063-.9A2.6,2.6,0,0,0,81.157,124.468Zm6.24-9.286v13.393H85.769V115.182Zm4.032,17.159a3.763,3.763,0,0,1-.738-.065,2.036,2.036,0,0,1-.448-.118l.414-1.36a3.317,3.317,0,0,0,1.049.1,1.286,1.286,0,0,0,.808-.386,3.034,3.034,0,0,0,.656-1.1l.3-.785-3.92-10.1h1.766l2.926,8h.11l2.926-8h1.767l-4.5,11.51a4.292,4.292,0,0,1-.753,1.288,2.8,2.8,0,0,1-1.042.765A3.379,3.379,0,0,1,91.429,132.341Z" transform="translate(-22.275 -44.46)" fill="#324363"/>
      <g id="グループ_126" data-name="グループ 126" transform="translate(33.312 436.271)">
        <ellipse id="楕円形_153" data-name="楕円形 153" cx="93" cy="88.5" rx="93" ry="88.5" transform="translate(0 0.081)" fill="#fff"/>
        <ellipse id="楕円形_154" data-name="楕円形 154" cx="91.657" cy="86.859" rx="91.657" ry="86.859" transform="translate(1.343 1.725)" fill="none" stroke="#324363" stroke-width="5"/>
      </g>
      <path id="パス_293" data-name="パス 293" d="M281.8,813.539a78.759,78.759,0,0,0-9.2-36.862,83.494,83.494,0,0,0-25.661-29.045L195,813.539Z" transform="translate(-68.688 -288.685)" fill="#fcf892" stroke="#fff" stroke-width="6"/>
      <path id="パス_294" data-name="パス 294" d="M246.9,737.613a89.6,89.6,0,0,0-42.69-15.857L195,803.547Z" transform="translate(-68.688 -278.693)" fill="#6bdbf3" stroke="#fff" stroke-width="6"/>
      <path id="パス_295" data-name="パス 295" d="M187.994,721.437a91.279,91.279,0,0,0-38.252,4.4l29.316,77.422Z" transform="translate(-52.746 -278.401)" fill="#f36b6b" stroke="#fff" stroke-width="6"/>
      <path id="パス_296" data-name="パス 296" d="M116.073,730.272A85.768,85.768,0,0,0,73.446,764.4a78.766,78.766,0,0,0-11.9,51.664l86.251-9.224Z" transform="translate(-21.487 -281.981)" fill="#f3bd6b" stroke="#fff" stroke-width="6"/>
    </g>
    <g id="スマートフォンのアイコン素材" transform="translate(978.638 363.462)">
      <path id="パス_1" data-name="パス 1" d="M399.974,0H159.168C136.084,0,117.2,20.084,117.2,44.619V592.436c0,24.555,18.881,44.639,41.965,44.639H399.973c23.066,0,41.946-20.084,41.946-44.639V44.619C441.921,20.084,423.04,0,399.974,0ZM248.966,27.568H310.14a3.721,3.721,0,0,1,0,7.427H248.966a3.72,3.72,0,0,1,0-7.427Zm30.615,582.541c-10.437,0-18.954-9.021-18.954-20.143s8.517-20.1,18.954-20.1,18.881,8.982,18.881,20.1S290.017,610.109,279.581,610.109Zm120.394-60.134H159.168V52.26H399.974V549.975Z" transform="translate(31 -92)" fill="#2c2b2b"/>
    </g>
  </g>
</svg>
